<?xml version="1.0" encoding="UTF-8" standalone="no"?>
<svg
   xmlns:dc="http://purl.org/dc/elements/1.1/"
   xmlns:cc="http://creativecommons.org/ns#"
   xmlns:rdf="http://www.w3.org/1999/02/22-rdf-syntax-ns#"
   xmlns:svg="http://www.w3.org/2000/svg"
   xmlns="http://www.w3.org/2000/svg"
   xmlns:sodipodi="http://sodipodi.sourceforge.net/DTD/sodipodi-0.dtd"
   xmlns:inkscape="http://www.inkscape.org/namespaces/inkscape"
   width="257.75235"
   height="68"
   viewBox="0 0 257.75235 68"
   version="1.1"
   id="svg34"
   sodipodi:docname="logo--footer.svg"
   inkscape:version="0.92.4 (unknown)">
  <metadata
     id="metadata40">
    <rdf:RDF>
      <cc:Work
         rdf:about="">
        <dc:format>image/svg+xml</dc:format>
        <dc:type
           rdf:resource="http://purl.org/dc/dcmitype/StillImage" />
        <dc:title>Artboard Copy</dc:title>
      </cc:Work>
    </rdf:RDF>
  </metadata>
  <defs
     id="defs38" />
  <sodipodi:namedview
     pagecolor="#ffffff"
     bordercolor="#666666"
     borderopacity="1"
     objecttolerance="10"
     gridtolerance="10"
     guidetolerance="10"
     inkscape:pageopacity="0"
     inkscape:pageshadow="2"
     inkscape:window-width="1311"
     inkscape:window-height="713"
     id="namedview36"
     showgrid="false"
     fit-margin-top="0"
     fit-margin-left="0"
     fit-margin-right="0"
     fit-margin-bottom="0"
     inkscape:zoom="2.0553238"
     inkscape:cx="150.2182"
     inkscape:cy="-57.537603"
     inkscape:window-x="55"
     inkscape:window-y="27"
     inkscape:window-maximized="1"
     inkscape:current-layer="svg34" />
  <!-- Generator: Sketch 55.2 (78181) - https://sketchapp.com -->
  <title
     id="title2">Artboard Copy</title>
  <desc
     id="desc4">Created with Sketch.</desc>
  <g
     id="g1994">
    <g
       transform="translate(0,-1.232168)"
       id="Platzi"
       style="font-weight:normal;font-size:35px;font-family:ABeeZee-Regular, ABeeZee;fill:#8840da;fill-rule:evenodd;stroke:none;stroke-width:1"
       aria-label="Platzi">
      <path
         inkscape:connector-curvature="0"
         id="path1918"
         d="m 81.887207,34.321777 v 9.587403 h 4.34082 q 2.409668,0 3.725586,-1.247559 1.315918,-1.247559 1.315918,-3.554687 0,-2.290039 -1.315918,-3.537598 -1.315918,-1.247559 -3.725586,-1.247559 z m -3.452148,-2.836914 h 7.792968 q 4.289551,0 6.477051,1.948242 2.20459,1.931153 2.20459,5.673829 0,3.776855 -2.20459,5.708007 -2.1875,1.931153 -6.477051,1.931153 h -4.34082 V 57 h -3.452148 z" />
      <path
         inkscape:connector-curvature="0"
         id="path1920"
         d="m 99.421387,30.408203 h 3.144533 V 57 h -3.144533 z" />
      <path
         inkscape:connector-curvature="0"
         id="path1922"
         d="m 117.82715,47.378418 q -3.81104,0 -5.28076,0.871582 -1.46973,0.871582 -1.46973,2.973633 0,1.674804 1.09375,2.666015 1.11084,0.974122 3.00781,0.974122 2.61475,0 4.18701,-1.845704 1.58936,-1.862793 1.58936,-4.938964 v -0.700684 z m 6.27197,-1.298828 V 57 h -3.14453 v -2.905273 q -1.07666,1.743164 -2.68311,2.580566 -1.60644,0.820312 -3.93066,0.820312 -2.93945,0 -4.68262,-1.640625 -1.72607,-1.657714 -1.72607,-4.426269 0,-3.229981 2.15332,-4.870606 2.17041,-1.640625 6.45996,-1.640625 h 4.40918 v -0.307617 q 0,-2.17041 -1.43555,-3.349609 -1.41845,-1.196289 -3.99902,-1.196289 -1.64063,0 -3.1958,0.393066 -1.55518,0.393067 -2.99072,1.179199 v -2.905273 q 1.72607,-0.666504 3.34961,-0.991211 1.62353,-0.341797 3.16162,-0.341797 4.15283,0 6.20361,2.153321 2.05078,2.15332 2.05078,6.52832 z" />
      <path
         inkscape:connector-curvature="0"
         id="path1924"
         d="m 133.70361,32.424805 v 5.43457 h 6.47705 v 2.443848 h -6.47705 v 10.390625 q 0,2.341308 0.63233,3.007812 0.64941,0.666504 2.61474,0.666504 h 3.22998 V 57 h -3.22998 q -3.64013,0 -5.02441,-1.350098 -1.38428,-1.367187 -1.38428,-4.956054 V 40.303223 h -2.30713 v -2.443848 h 2.30713 v -5.43457 z" />
      <path
         inkscape:connector-curvature="0"
         id="path1926"
         d="m 142.96631,37.859375 h 14.93652 v 2.871094 l -11.82617,13.757324 h 11.82617 V 57 h -15.36377 v -2.871094 l 11.82617,-13.757324 h -11.39892 z" />
      <path
         inkscape:connector-curvature="0"
         id="path1928"
         d="m 162.72217,37.859375 h 3.14453 V 57 h -3.14453 z m 0,-7.451172 h 3.14453 v 3.981934 h -3.14453 z" />
    </g>
    <g
       id="g895">
      <path
         style="fill:none;fill-rule:evenodd;stroke:#cccccc;stroke-width:2"
         inkscape:connector-curvature="0"
         id="Path"
         d="M 69,31.286272 C 69,26.157689 64.891583,22 59.824603,22 H 10.17473 C 5.1077497,22 1,26.157689 1,31.286272 v 10.999174 c 0,0.05131 0.00667,0.1006 0.00734,0.152588 C 1.0066706,42.489347 1,42.537959 1,42.589947 v 14.901651 c 0,5.129257 4.1077497,9.286271 9.17473,9.286271 h 1.125329 c 5.06698,0 9.17473,-4.157014 9.17473,-9.286271 v -9.014854 h 29.050422 v 9.236984 c 0,5.129258 4.10775,9.286272 9.17473,9.286272 H 59.82527 C 64.89225,67 69,62.842986 69,57.713728 V 42.811403 C 69,42.722283 68.98933,42.636534 68.98666,42.548087 68.98866,42.45964 69,42.374569 69,42.284771 Z" />
      <path
         style="fill:none;fill-rule:evenodd;stroke:#cccccc;stroke-width:2"
         inkscape:connector-curvature="0"
         id="path10"
         d="M 16.821804,35.033085 H 15.677848 V 33.965942 C 15.677848,32.327927 14.255201,31 12.499653,31 10.744799,31 9.3221517,32.327927 9.3221517,33.965942 v 1.067143 H 8.1781958 C 6.4226475,35.033085 5,36.361661 5,38.000324 c 0,1.636718 1.4226475,2.965294 3.1781958,2.965294 h 1.1439559 v 1.06844 C 9.3221517,43.672073 10.744799,45 12.499653,45 c 1.755548,0 3.178195,-1.327927 3.178195,-2.965942 v -1.06844 h 1.143956 C 18.577352,40.965618 20,39.637042 20,38.000324 20,36.361661 18.577352,35.033085 16.821804,35.033085 Z" />
      <circle
         style="fill:none;fill-rule:evenodd;stroke:#cccccc;stroke-width:2"
         r="2"
         cy="32"
         cx="57"
         id="Oval" />
      <circle
         style="fill:none;fill-rule:evenodd;stroke:#cccccc;stroke-width:2"
         r="2"
         cy="43"
         cx="57"
         id="circle13" />
      <circle
         style="fill:none;fill-rule:evenodd;stroke:#cccccc;stroke-width:2"
         r="2"
         cy="37"
         cx="63"
         id="circle15" />
      <circle
         style="fill:none;fill-rule:evenodd;stroke:#cccccc;stroke-width:2"
         r="2"
         cy="37"
         cx="52"
         id="circle17" />
      <path
         style="fill:#cccccc;fill-rule:nonzero;stroke:none;stroke-width:1"
         inkscape:connector-curvature="0"
         id="path19"
         d="m 36,16.066028 c 0,-5.043643 0,-10.08793 0,-15.1315729 0,-1.24594013 -2,-1.24594013 -2,0 0,5.0436429 0,10.0879299 0,15.1315729 0,1.245296 2,1.245296 2,0 z" />
      <path
         style="fill:#cccccc;fill-rule:nonzero;stroke:none;stroke-width:1"
         inkscape:connector-curvature="0"
         id="path21"
         d="M 39.989491,16 C 37.32983,16 34.67017,16 32.010509,16 31.459445,16 31,16.400318 31,16.879176 c 0,1.747216 0,3.494432 0,5.241648 C 31,22.599682 31.459445,23 32.010509,23 34.67017,23 37.32983,23 39.989491,23 40.540555,23 41,22.599682 41,22.120824 c 0,-1.747216 0,-3.494432 0,-5.241648 0,-1.134137 -2.021019,-1.134137 -2.021019,0 0,1.747216 0,3.494432 0,5.241648 0.336837,-0.293059 0.673673,-0.586118 1.01051,-0.879176 -2.659661,0 -5.319321,0 -7.978982,0 0.336837,0.293058 0.673673,0.586117 1.01051,0.879176 0,-1.747216 0,-3.494432 0,-5.241648 -0.336837,0.293059 -0.673673,0.586118 -1.01051,0.879176 2.659661,0 5.319321,0 7.978982,0 1.302883,0 1.302883,-1.758352 0,-1.758352 z" />
      <path
         style="fill:#cccccc;fill-rule:nonzero;stroke:none;stroke-width:1"
         inkscape:connector-curvature="0"
         id="path23"
         d="m 32,39 c 0,0.552143 -0.422578,1 -0.943556,1 H 28.943556 C 28.422578,40 28,39.552143 28,39 v 0 c 0,-0.552143 0.422578,-1 0.943556,-1 h 2.112888 C 31.577422,38.00064 32,38.447857 32,39 Z" />
      <path
         style="fill:#cccccc;fill-rule:nonzero;stroke:none;stroke-width:1"
         inkscape:connector-curvature="0"
         id="path25"
         d="m 41,39 c 0,0.552143 -0.422578,1 -0.943556,1 H 37.943556 C 37.422578,40 37,39.552143 37,39 v 0 c 0,-0.552143 0.422578,-1 0.943556,-1 h 2.112888 C 40.577422,38.00064 41,38.447857 41,39 Z" />
    </g>
    <g
       id="Group-2"
       transform="translate(167,26)"
       font-size="30"
       font-weight="700"
       style="font-weight:700;font-size:30px;font-family:Lato-Black, Lato;fill:#cccccc;fill-rule:evenodd;stroke:none;stroke-width:1">
      <g
         id="Games"
         aria-label="Games">
        <g
           id="g1947">
          <path
             inkscape:connector-curvature="0"
             d="m 20.658281,27.923437 q -1.65,1.215 -3.525,1.785 -1.86,0.555 -3.99,0.555 -2.655,0 -4.8149997,-0.825 -2.1450001,-0.825 -3.675,-2.295 -1.515,-1.47 -2.34,-3.51 -0.8250001,-2.04 -0.8250001,-4.455 0,-2.445 0.7950001,-4.484999 0.7949999,-2.04 2.2499999,-3.51 1.47,-1.4700005 3.5550001,-2.2800005 2.0849997,-0.81 4.6799997,-0.81 1.32,0 2.46,0.21 1.155,0.21 2.13,0.585 0.99,0.36 1.8,0.885 0.81,0.5250005 1.485,1.1549995 l -1.155,1.83 q -0.27,0.435 -0.705,0.54 -0.435,0.09 -0.945,-0.225 -0.495,-0.284999 -0.99,-0.569999 -0.495,-0.285 -1.11,-0.495001 -0.6,-0.21 -1.365,-0.344999 -0.75,-0.135001 -1.74,-0.135001 -1.605,0 -2.9099997,0.54 -1.29,0.540001 -2.2050001,1.545001 -0.915,1.005 -1.41,2.414999 -0.4949999,1.41 -0.4949999,3.15 0,1.86 0.525,3.33 0.5399999,1.455 1.4999999,2.475 0.9750001,1.005 2.3400001,1.545 1.3649997,0.525 3.0449997,0.525 1.2,0 2.145,-0.24 0.945,-0.255 1.845,-0.689999 v -3.945001 h -2.73 q -0.39,0 -0.615,-0.21 -0.21,-0.225 -0.21,-0.54 v -2.28 h 7.2 z"
             id="path1931" />
          <path
             inkscape:connector-curvature="0"
             d="m 34.055156,30.023437 q -0.525,0 -0.81,-0.149999 -0.285,-0.165001 -0.45,-0.645001 l -0.33,-1.095 q -0.585,0.525001 -1.14,0.93 -0.555,0.39 -1.155,0.66 -0.6,0.27 -1.29,0.405 -0.675,0.135 -1.5,0.135 -0.975,0 -1.8,-0.255 -0.825,-0.27 -1.425,-0.794999 -0.6,-0.525001 -0.93,-1.305001 -0.33,-0.78 -0.33,-1.815 0,-0.87 0.45,-1.71 0.465,-0.855 1.53,-1.53 1.065,-0.69 2.835,-1.14 1.77,-0.449999 4.41,-0.51 v -0.9 q 0,-1.545 -0.66,-2.28 -0.66,-0.75 -1.905,-0.75 -0.9,0 -1.5,0.21 -0.585,0.21 -1.035,0.48 -0.45,0.255 -0.825,0.465 -0.36,0.210001 -0.81,0.210001 -0.39,0 -0.66,-0.195 -0.27,-0.210001 -0.435,-0.480001 l -0.66,-1.185 q 2.655,-2.429999 6.39,-2.429999 1.35,0 2.415,0.449999 1.065,0.435001 1.8,1.23 0.735,0.78 1.11,1.875 0.39,1.095001 0.39,2.4 v 9.72 z m -5.535,-2.309999 q 1.14,0 1.965,-0.405001 0.84,-0.419999 1.635,-1.26 v -2.595 q -1.62,0.075 -2.715,0.285 -1.08,0.195 -1.74,0.510001 -0.66,0.314999 -0.945,0.734999 -0.285,0.42 -0.285,0.915 0,0.975001 0.57,1.395 0.585,0.420001 1.515,0.420001 z"
             id="path1933" />
          <path
             inkscape:connector-curvature="0"
             d="m 39.224531,30.023437 v -15.39 h 2.265 q 0.72,0 0.945,0.675001 l 0.24,1.139999 q 0.405,-0.449999 0.84,-0.824999 0.45,-0.375 0.945,-0.645001 0.51,-0.27 1.08,-0.419999 0.585,-0.165001 1.275,-0.165001 1.455,0 2.385,0.795001 0.945,0.779999 1.41,2.084999 0.36,-0.765 0.9,-1.305 0.54,-0.554999 1.185,-0.899999 0.645,-0.345001 1.365,-0.51 0.735,-0.165001 1.47,-0.165001 1.275,0 2.265,0.390001 0.99,0.39 1.665,1.139999 0.675,0.75 1.02,1.83 0.36,1.080001 0.36,2.475 v 9.795 h -3.705 v -9.795 q 0,-1.47 -0.645,-2.205 -0.645,-0.75 -1.89,-0.75 -0.57,0 -1.065,0.195 -0.48,0.195 -0.855,0.57 -0.36,0.36 -0.57,0.915 -0.21,0.555 -0.21,1.275 v 9.795 h -3.72 v -9.795 q 0,-1.545 -0.63,-2.25 -0.615,-0.705 -1.815,-0.705 -0.81,0 -1.515,0.405 -0.69,0.390001 -1.29,1.08 v 11.265 z"
             id="path1935" />
          <path
             inkscape:connector-curvature="0"
             d="m 70.91625,14.393437 q 1.455,0 2.685,0.465 1.23,0.465001 2.115,1.365 0.885,0.885 1.38,2.19 0.51,1.29 0.51,2.955 0,0.84 -0.18,1.14 -0.18,0.285 -0.69,0.285 h -9.525 q 0.09,1.185 0.42,2.055 0.33,0.855 0.87,1.425 0.54,0.555 1.275,0.84 0.75,0.27 1.65,0.27 0.9,0 1.545,-0.21 0.66,-0.209999 1.14,-0.465 0.495,-0.255 0.855,-0.465 0.375,-0.21 0.72,-0.21 0.465,0 0.69,0.345 l 1.065,1.35 q -0.615,0.72 -1.38,1.215001 -0.765,0.479999 -1.605,0.779999 -0.825,0.285 -1.695,0.405 -0.855,0.120001 -1.665,0.120001 -1.605,0 -2.985,-0.525001 -1.38,-0.54 -2.4,-1.575 -1.02,-1.05 -1.605,-2.579999 -0.585,-1.545001 -0.585,-3.57 0,-1.575001 0.51,-2.955001 0.51,-1.395 1.455,-2.415 0.96,-1.034999 2.325,-1.634999 1.38,-0.600001 3.105,-0.600001 z m 0.075,2.655 q -1.62,0 -2.535,0.915 -0.915,0.915 -1.17,2.595 h 6.99 q 0,-0.72 -0.21,-1.349999 -0.195,-0.645001 -0.6,-1.125001 -0.405,-0.48 -1.035,-0.749999 -0.615,-0.285001 -1.44,-0.285001 z"
             id="path1937" />
          <path
             inkscape:connector-curvature="0"
             d="m 89.747344,17.633437 q -0.15,0.240001 -0.315,0.345 -0.165,0.09 -0.42,0.09 -0.27,0 -0.585,-0.150001 -0.3,-0.15 -0.705,-0.33 -0.405,-0.195 -0.93,-0.345 -0.51,-0.15 -1.215,-0.15 -1.095,0 -1.725,0.465 -0.615,0.465 -0.615,1.215 0,0.495 0.315,0.84 0.33,0.330001 0.855,0.585 0.54,0.255 1.215,0.465 0.675,0.195 1.365,0.435001 0.705,0.24 1.38,0.554999 0.675,0.3 1.2,0.78 0.54,0.465 0.855,1.125 0.33,0.66 0.33,1.59 0,1.11 -0.405,2.055 -0.39,0.93 -1.17,1.62 -0.78,0.675001 -1.935,1.065 -1.14,0.375 -2.64,0.375 -0.795,0 -1.56,-0.15 -0.75,-0.135 -1.455,-0.39 -0.69,-0.255 -1.29,-0.599999 -0.585,-0.345001 -1.035,-0.75 l 0.855,-1.41 q 0.165,-0.255001 0.39,-0.390001 0.225,-0.135 0.57,-0.135 0.345,0 0.645,0.195 0.315,0.195 0.72,0.42 0.405,0.225 0.945,0.42 0.555,0.195 1.395,0.195 0.66,0 1.125,-0.15 0.48,-0.165 0.78,-0.42 0.315,-0.255 0.45,-0.585 0.15,-0.345 0.15,-0.705 0,-0.54 -0.33,-0.885 -0.315,-0.345 -0.855,-0.6 -0.525,-0.254999 -1.215,-0.449999 -0.675,-0.210001 -1.395,-0.450001 -0.705,-0.24 -1.395,-0.555 -0.675,-0.33 -1.215,-0.825 -0.525,-0.495 -0.855,-1.215 -0.315,-0.72 -0.315,-1.74 0,-0.945 0.375,-1.8 0.375,-0.855 1.095,-1.485 0.735,-0.644999 1.815,-1.019999 1.095,-0.390001 2.52,-0.390001 1.59,0 2.895,0.525 1.305,0.525001 2.175,1.38 z"
             id="path1939" />
        </g>
      </g>
    </g>
  </g>
</svg>
