<?xml version="1.0" encoding="UTF-8" standalone="no"?>
<svg
   xmlns:dc="http://purl.org/dc/elements/1.1/"
   xmlns:cc="http://creativecommons.org/ns#"
   xmlns:rdf="http://www.w3.org/1999/02/22-rdf-syntax-ns#"
   xmlns:svg="http://www.w3.org/2000/svg"
   xmlns="http://www.w3.org/2000/svg"
   xmlns:sodipodi="http://sodipodi.sourceforge.net/DTD/sodipodi-0.dtd"
   xmlns:inkscape="http://www.inkscape.org/namespaces/inkscape"
   width="258.38907"
   height="68"
   viewBox="0 0 258.38907 68"
   version="1.1"
   id="svg1123"
   sodipodi:docname="logo--header.svg"
   inkscape:version="0.92.4 (unknown)">
  <metadata
     id="metadata1129">
    <rdf:RDF>
      <cc:Work
         rdf:about="">
        <dc:format>image/svg+xml</dc:format>
        <dc:type
           rdf:resource="http://purl.org/dc/dcmitype/StillImage" />
        <dc:title>Artboard</dc:title>
      </cc:Work>
    </rdf:RDF>
  </metadata>
  <defs
     id="defs1127" />
  <sodipodi:namedview
     pagecolor="#ffffff"
     bordercolor="#666666"
     borderopacity="1"
     objecttolerance="10"
     gridtolerance="10"
     guidetolerance="10"
     inkscape:pageopacity="0"
     inkscape:pageshadow="2"
     inkscape:window-width="1311"
     inkscape:window-height="713"
     id="namedview1125"
     showgrid="false"
     fit-margin-top="0"
     fit-margin-left="0"
     fit-margin-right="0"
     fit-margin-bottom="0"
     inkscape:zoom="2.61"
     inkscape:cx="149.61691"
     inkscape:cy="30.523438"
     inkscape:window-x="55"
     inkscape:window-y="27"
     inkscape:window-maximized="1"
     inkscape:current-layer="svg1123" />
  <!-- Generator: Sketch 55.2 (78181) - https://sketchapp.com -->
  <title
     id="title1091">Artboard</title>
  <desc
     id="desc1093">Created with Sketch.</desc>
  <g
     id="g1782">
    <g
       transform="translate(0.636719,-0.023438)"
       id="Group"
       style="fill:none;fill-rule:evenodd;stroke:none;stroke-width:1">
      <g
         transform="translate(0.363281,0.023438)"
         id="Group-4">
        <path
           style="stroke:#001e7e;stroke-width:2"
           inkscape:connector-curvature="0"
           id="Path"
           d="M 68,31.286272 C 68,26.157689 63.891583,22 58.824603,22 H 9.1747302 C 4.1077497,22 0,26.157689 0,31.286272 v 10.999174 c 0,0.05131 0.00667059,0.1006 0.00733765,0.152588 C 0.00667059,42.489347 0,42.537959 0,42.589947 v 14.901651 c 0,5.129257 4.1077497,9.286271 9.1747302,9.286271 h 1.1253288 c 5.06698,0 9.17473,-4.157014 9.17473,-9.286271 v -9.014854 h 29.050422 v 9.236984 c 0,5.129258 4.10775,9.286272 9.17473,9.286272 H 58.82527 C 63.89225,67 68,62.842986 68,57.713728 V 42.811403 C 68,42.722283 67.98933,42.636534 67.98666,42.548087 67.98866,42.45964 68,42.374569 68,42.284771 Z" />
        <path
           style="stroke:#001e7e;stroke-width:2"
           inkscape:connector-curvature="0"
           id="path1096"
           d="M 15.821804,35.033085 H 14.677848 V 33.965942 C 14.677848,32.327927 13.255201,31 11.499653,31 9.7447992,31 8.3221517,32.327927 8.3221517,33.965942 v 1.067143 H 7.1781958 C 5.4226475,35.033085 4,36.361661 4,38.000324 c 0,1.636718 1.4226475,2.965294 3.1781958,2.965294 h 1.1439559 v 1.06844 C 8.3221517,43.672073 9.7447992,45 11.499653,45 c 1.755548,0 3.178195,-1.327927 3.178195,-2.965942 v -1.06844 h 1.143956 C 17.577352,40.965618 19,39.637042 19,38.000324 19,36.361661 17.577352,35.033085 15.821804,35.033085 Z" />
        <circle
           style="stroke:#001e7e;stroke-width:2"
           r="2"
           cy="32"
           cx="56"
           id="Oval" />
        <circle
           style="stroke:#001e7e;stroke-width:2"
           r="2"
           cy="43"
           cx="56"
           id="circle1099" />
        <circle
           style="stroke:#001e7e;stroke-width:2"
           r="2"
           cy="37"
           cx="62"
           id="circle1101" />
        <circle
           style="stroke:#001e7e;stroke-width:2"
           r="2"
           cy="37"
           cx="51"
           id="circle1103" />
        <path
           style="fill:#012179;fill-rule:nonzero"
           inkscape:connector-curvature="0"
           id="path1105"
           d="m 35,16.066028 c 0,-5.043643 0,-10.08793 0,-15.1315729 0,-1.24594013 -2,-1.24594013 -2,0 0,5.0436429 0,10.0879299 0,15.1315729 0,1.245296 2,1.245296 2,0 z" />
        <path
           style="fill:#012179;fill-rule:nonzero"
           inkscape:connector-curvature="0"
           id="path1107"
           d="M 38.989491,16 C 36.32983,16 33.67017,16 31.010509,16 30.459445,16 30,16.400318 30,16.879176 c 0,1.747216 0,3.494432 0,5.241648 C 30,22.599682 30.459445,23 31.010509,23 33.67017,23 36.32983,23 38.989491,23 39.540555,23 40,22.599682 40,22.120824 c 0,-1.747216 0,-3.494432 0,-5.241648 0,-1.134137 -2.021019,-1.134137 -2.021019,0 0,1.747216 0,3.494432 0,5.241648 0.336837,-0.293059 0.673673,-0.586118 1.01051,-0.879176 -2.659661,0 -5.319321,0 -7.978982,0 0.336837,0.293058 0.673673,0.586117 1.01051,0.879176 0,-1.747216 0,-3.494432 0,-5.241648 -0.336837,0.293059 -0.673673,0.586118 -1.01051,0.879176 2.659661,0 5.319321,0 7.978982,0 1.302883,0 1.302883,-1.758352 0,-1.758352 z" />
        <path
           style="fill:#012179;fill-rule:nonzero"
           inkscape:connector-curvature="0"
           id="path1109"
           d="m 31,38 c 0,0.552143 -0.422578,1 -0.943556,1 H 27.943556 C 27.422578,39 27,38.552143 27,38 v 0 c 0,-0.552143 0.422578,-1 0.943556,-1 h 2.112888 C 30.577422,37.00064 31,37.447857 31,38 Z" />
        <path
           style="fill:#012179;fill-rule:nonzero"
           inkscape:connector-curvature="0"
           id="path1111"
           d="m 40,38 c 0,0.552143 -0.422578,1 -0.943556,1 H 36.943556 C 36.422578,39 36,38.552143 36,38 v 0 c 0,-0.552143 0.422578,-1 0.943556,-1 h 2.112888 C 39.577422,37.00064 40,37.447857 40,38 Z" />
      </g>
    </g>
    <g
       transform="translate(0,-0.767832)"
       id="Games"
       style="font-weight:700;font-size:30px;font-family:Lato-Black, Lato;fill:#012179;fill-rule:evenodd;stroke:none;stroke-width:1"
       aria-label="Games">
      <path
         inkscape:connector-curvature="0"
         id="path1746"
         d="m 188.295,55.9 q -1.65,1.215 -3.525,1.785 -1.86,0.555 -3.99,0.555 -2.655,0 -4.815,-0.825 -2.145,-0.825 -3.675,-2.295 -1.515,-1.47 -2.34,-3.51 -0.825,-2.04 -0.825,-4.455 0,-2.445 0.795,-4.485 0.795,-2.04 2.25,-3.51 1.47,-1.47 3.555,-2.28 2.085,-0.81 4.68,-0.81 1.32,0 2.46,0.21 1.155,0.21 2.13,0.585 0.99,0.36 1.8,0.885 0.81,0.525 1.485,1.155 l -1.155,1.83 q -0.27,0.435 -0.705,0.54 -0.435,0.09 -0.945,-0.225 -0.495,-0.285 -0.99,-0.57 -0.495,-0.285 -1.11,-0.495 -0.6,-0.21 -1.365,-0.345 -0.75,-0.135 -1.74,-0.135 -1.605,0 -2.91,0.54 -1.29,0.54 -2.205,1.545 -0.915,1.005 -1.41,2.415 -0.495,1.41 -0.495,3.15 0,1.86 0.525,3.33 0.54,1.455 1.5,2.475 0.975,1.005 2.34,1.545 1.365,0.525 3.045,0.525 1.2,0 2.145,-0.24 0.945,-0.255 1.845,-0.69 v -3.945 h -2.73 q -0.39,0 -0.615,-0.21 -0.21,-0.225 -0.21,-0.54 v -2.28 h 7.2 z" />
      <path
         inkscape:connector-curvature="0"
         id="path1748"
         d="m 201.69187,58 q -0.525,0 -0.81,-0.15 -0.285,-0.165 -0.45,-0.645 l -0.33,-1.095 q -0.585,0.525 -1.14,0.93 -0.55499,0.39 -1.155,0.66 -0.6,0.27 -1.29,0.405 -0.675,0.135 -1.5,0.135 -0.975,0 -1.8,-0.255 -0.825,-0.27 -1.425,-0.795 -0.6,-0.525 -0.93,-1.305 -0.32999,-0.78 -0.32999,-1.815 0,-0.87 0.44999,-1.71 0.465,-0.855 1.53,-1.53 1.065,-0.69 2.835,-1.14 1.77,-0.45 4.41,-0.51 v -0.9 q 0,-1.545 -0.66,-2.28 -0.66,-0.75 -1.905,-0.75 -0.9,0 -1.5,0.21 -0.585,0.21 -1.03499,0.48 -0.45001,0.255 -0.82501,0.465 -0.36,0.21 -0.81,0.21 -0.39,0 -0.66,-0.195 -0.27,-0.21 -0.435,-0.48 l -0.66,-1.185 q 2.655,-2.43 6.39001,-2.43 1.34999,0 2.41499,0.45 1.065,0.435 1.8,1.23 0.735,0.78 1.11,1.875 0.39,1.095 0.39,2.4 V 58 Z m -5.53499,-2.31 q 1.13999,0 1.96499,-0.405 0.84,-0.42 1.635,-1.26 V 51.43 q -1.62,0.075 -2.715,0.285 -1.08,0.195 -1.74,0.51 -0.66,0.315 -0.945,0.735 -0.285,0.42 -0.285,0.915 0,0.975 0.57,1.395 0.585,0.42 1.51501,0.42 z" />
      <path
         inkscape:connector-curvature="0"
         id="path1750"
         d="M 206.86125,58 V 42.61 h 2.265 q 0.72,0 0.945,0.675 l 0.24,1.14 q 0.405,-0.45 0.84,-0.825 0.45,-0.375 0.945,-0.645 0.51,-0.27 1.08,-0.42 0.585,-0.165 1.275,-0.165 1.455,0 2.385,0.795 0.945,0.78 1.41,2.085 0.36,-0.765 0.9,-1.305 0.54,-0.555 1.185,-0.9 0.645,-0.345 1.365,-0.51 0.735,-0.165 1.47,-0.165 1.275,0 2.265,0.39 0.99,0.39 1.665,1.14 0.675,0.75 1.02,1.83 0.36,1.08 0.36,2.475 V 58 h -3.705 v -9.795 q 0,-1.47 -0.645,-2.205 -0.645,-0.75 -1.89,-0.75 -0.57,0 -1.065,0.195 -0.48,0.195 -0.855,0.57 -0.36,0.36 -0.57,0.915 -0.21,0.555 -0.21,1.275 V 58 h -3.72 v -9.795 q 0,-1.545 -0.63,-2.25 -0.615,-0.705 -1.815,-0.705 -0.81,0 -1.515,0.405 -0.69,0.39 -1.29,1.08 V 58 Z" />
      <path
         inkscape:connector-curvature="0"
         id="path1752"
         d="m 238.55297,42.37 q 1.455,0 2.685,0.465 1.23,0.465 2.115,1.365 0.885,0.885 1.38,2.19 0.51,1.29 0.51,2.955 0,0.84 -0.18,1.14 -0.18,0.285 -0.69,0.285 h -9.525 q 0.09,1.185 0.42,2.055 0.33,0.855 0.87,1.425 0.54,0.555 1.275,0.84 0.75,0.27 1.65,0.27 0.9,0 1.545,-0.21 0.66,-0.21 1.14,-0.465 0.495,-0.255 0.855,-0.465 0.375,-0.21 0.72,-0.21 0.465,0 0.69,0.345 l 1.065,1.35 q -0.615,0.72 -1.38,1.215 -0.765,0.48 -1.605,0.78 -0.825,0.285 -1.695,0.405 -0.855,0.12 -1.665,0.12 -1.605,0 -2.985,-0.525 -1.38,-0.54 -2.4,-1.575 -1.02,-1.05 -1.605,-2.58 -0.585,-1.545 -0.585,-3.57 0,-1.575 0.51,-2.955 0.51,-1.395 1.455,-2.415 0.96,-1.035 2.325,-1.635 1.38,-0.6 3.105,-0.6 z m 0.075,2.655 q -1.62,0 -2.535,0.915 -0.915,0.915 -1.17,2.595 h 6.99 q 0,-0.72 -0.21,-1.35 -0.195,-0.645 -0.6,-1.125 -0.405,-0.48 -1.035,-0.75 -0.615,-0.285 -1.44,-0.285 z" />
      <path
         inkscape:connector-curvature="0"
         id="path1754"
         d="m 257.38406,45.61 q -0.15,0.24 -0.315,0.345 -0.165,0.09 -0.42,0.09 -0.27,0 -0.585,-0.15 -0.3,-0.15 -0.705,-0.33 -0.405,-0.195 -0.93,-0.345 -0.51,-0.15 -1.215,-0.15 -1.095,0 -1.725,0.465 -0.615,0.465 -0.615,1.215 0,0.495 0.315,0.84 0.33,0.33 0.855,0.585 0.54,0.255 1.215,0.465 0.675,0.195 1.365,0.435 0.705,0.24 1.38,0.555 0.675,0.3 1.2,0.78 0.54,0.465 0.855,1.125 0.33,0.66 0.33,1.59 0,1.11 -0.405,2.055 -0.39,0.93 -1.17,1.62 -0.78,0.675 -1.935,1.065 -1.14,0.375 -2.64,0.375 -0.795,0 -1.56,-0.15 -0.75,-0.135 -1.455,-0.39 -0.69,-0.255 -1.29,-0.6 -0.585,-0.345 -1.035,-0.75 l 0.855,-1.41 q 0.165,-0.255 0.39,-0.39 0.225,-0.135 0.57,-0.135 0.345,0 0.645,0.195 0.315,0.195 0.72,0.42 0.405,0.225 0.945,0.42 0.555,0.195 1.395,0.195 0.66,0 1.125,-0.15 0.48,-0.165 0.78,-0.42 0.315,-0.255 0.45,-0.585 0.15,-0.345 0.15,-0.705 0,-0.54 -0.33,-0.885 -0.315,-0.345 -0.855,-0.6 -0.525,-0.255 -1.215,-0.45 -0.675,-0.21 -1.395,-0.45 -0.705,-0.24 -1.395,-0.555 -0.675,-0.33 -1.215,-0.825 -0.525,-0.495 -0.855,-1.215 -0.315,-0.72 -0.315,-1.74 0,-0.945 0.375,-1.8 0.375,-0.855 1.095,-1.485 0.735,-0.645 1.815,-1.02 1.095,-0.39 2.52,-0.39 1.59,0 2.895,0.525 1.305,0.525 2.175,1.38 z" />
    </g>
    <g
       id="Platzi"
       style="font-weight:normal;font-size:35px;font-family:ABeeZee-Regular, ABeeZee;fill:#8841da;fill-opacity:1;fill-rule:evenodd;stroke:none;stroke-width:1"
       aria-label="Platzi">
      <path
         id="path1733"
         style="fill:#8841da;fill-opacity:1"
         d="m 81.523926,34.29834 v 9.587402 h 4.34082 q 2.409668,0 3.725586,-1.247558 1.315918,-1.247559 1.315918,-3.554688 0,-2.290039 -1.315918,-3.537598 -1.315918,-1.247558 -3.725586,-1.247558 z m -3.452149,-2.836914 h 7.792969 q 4.289551,0 6.477051,1.948242 2.20459,1.931152 2.20459,5.673828 0,3.776856 -2.20459,5.708008 -2.1875,1.931152 -6.477051,1.931152 h -4.34082 v 10.253906 h -3.452149 z" />
      <path
         id="path1735"
         style="fill:#8841da;fill-opacity:1"
         d="m 99.058105,30.384766 h 3.144535 v 26.591796 h -3.144535 z" />
      <path
         id="path1737"
         style="fill:#8841da;fill-opacity:1"
         d="m 117.46387,47.35498 q -3.81104,0 -5.28076,0.871582 -1.46973,0.871583 -1.46973,2.973633 0,1.674805 1.09375,2.666016 1.11084,0.974121 3.00781,0.974121 2.61475,0 4.18701,-1.845703 1.58936,-1.862793 1.58936,-4.938965 V 47.35498 Z m 6.27197,-1.298828 v 10.92041 h -3.14453 v -2.905273 q -1.07666,1.743164 -2.68311,2.580566 -1.60644,0.820313 -3.93066,0.820313 -2.93945,0 -4.68262,-1.640625 -1.72607,-1.657715 -1.72607,-4.42627 0,-3.22998 2.15332,-4.870605 2.17041,-1.640625 6.45996,-1.640625 h 4.40918 v -0.307617 q 0,-2.17041 -1.43555,-3.34961 -1.41846,-1.196289 -3.99902,-1.196289 -1.64063,0 -3.1958,0.393067 -1.55518,0.393066 -2.99073,1.179199 V 38.70752 q 1.72608,-0.666504 3.34961,-0.991211 1.62354,-0.341797 3.16163,-0.341797 4.15283,0 6.20361,2.15332 2.05078,2.15332 2.05078,6.52832 z" />
      <path
         id="path1739"
         style="fill:#8841da;fill-opacity:1"
         d="m 133.34033,32.401367 v 5.43457 h 6.47705 v 2.443848 h -6.47705 V 50.67041 q 0,2.341309 0.63233,3.007813 0.64941,0.666504 2.61474,0.666504 h 3.22998 v 2.631835 h -3.22998 q -3.64013,0 -5.02441,-1.350097 -1.38428,-1.367188 -1.38428,-4.956055 V 40.279785 h -2.30713 v -2.443848 h 2.30713 v -5.43457 z" />
      <path
         id="path1741"
         style="fill:#8841da;fill-opacity:1"
         d="m 142.60303,37.835937 h 14.93652 v 2.871094 l -11.82617,13.757324 h 11.82617 v 2.512207 h -15.36377 v -2.871093 l 11.82617,-13.757324 h -11.39892 z" />
      <path
         id="path1743"
         style="fill:#8841da;fill-opacity:1"
         d="m 162.35889,37.835937 h 3.14453 v 19.140625 h -3.14453 z m 0,-7.451171 h 3.14453 v 3.981933 h -3.14453 z" />
    </g>
  </g>
</svg>
